<?xml version="1.0" encoding="UTF-8"?>
<svg xmlns="http://www.w3.org/2000/svg" xmlns:xlink="http://www.w3.org/1999/xlink" width="260px" height="151px" viewBox="0 0 260 151" version="1.1">
<g id="surface1">
<path style=" stroke:none;fill-rule:nonzero;fill:rgb(11.372549%,16.078431%,27.843137%);fill-opacity:1;" d="M 142.339844 80.019531 C 142.339844 82.136719 143.398438 83.847656 145.511719 85.160156 C 147.625 86.398438 150.175781 87.417969 153.164062 88.222656 C 156.148438 88.949219 159.136719 89.824219 162.125 90.84375 C 165.113281 91.792969 167.664062 93.46875 169.777344 95.875 C 171.890625 98.207031 172.949219 101.230469 172.949219 104.949219 C 172.949219 109.90625 171.015625 113.878906 167.15625 116.867188 C 163.363281 119.855469 158.480469 121.347656 152.507812 121.347656 C 147.1875 121.347656 142.632812 120.183594 138.84375 117.851562 C 135.054688 115.519531 132.355469 112.421875 130.753906 108.558594 L 138.953125 103.855469 C 139.828125 106.480469 141.464844 108.558594 143.871094 110.085938 C 146.277344 111.617188 149.15625 112.382812 152.507812 112.382812 C 155.640625 112.382812 158.226562 111.800781 160.269531 110.632812 C 162.308594 109.394531 163.328125 107.5 163.328125 104.949219 C 163.328125 102.835938 162.273438 101.160156 160.160156 99.917969 C 158.042969 98.609375 155.496094 97.585938 152.507812 96.859375 C 149.519531 96.054688 146.53125 95.144531 143.542969 94.125 C 140.554688 93.105469 138.003906 91.429688 135.890625 89.09375 C 133.777344 86.761719 132.722656 83.773438 132.722656 80.128906 C 132.722656 75.390625 134.542969 71.492188 138.1875 68.429688 C 141.902344 65.371094 146.53125 63.839844 152.070312 63.839844 C 156.515625 63.839844 160.449219 64.859375 163.875 66.902344 C 167.371094 68.867188 169.996094 71.636719 171.746094 75.210938 L 163.765625 79.691406 C 161.796875 75.027344 157.898438 72.695312 152.070312 72.695312 C 149.371094 72.695312 147.078125 73.351562 145.183594 74.664062 C 143.289062 75.902344 142.339844 77.6875 142.339844 80.019531 Z M 142.339844 80.019531 "/>
<path style=" stroke:none;fill-rule:nonzero;fill:rgb(11.372549%,16.078431%,27.843137%);fill-opacity:1;" d="M 221.386719 65.261719 L 230.894531 65.261719 L 230.894531 119.929688 L 221.386719 119.929688 L 221.386719 112.054688 C 217.523438 118.25 211.621094 121.347656 203.679688 121.347656 C 197.265625 121.347656 192.128906 119.34375 188.265625 115.335938 C 184.402344 111.253906 182.472656 105.75 182.472656 98.828125 L 182.472656 65.261719 L 191.980469 65.261719 L 191.980469 98.28125 C 191.980469 102.726562 193.183594 106.1875 195.589844 108.667969 C 197.992188 111.070312 201.308594 112.273438 205.535156 112.273438 C 210.273438 112.273438 214.097656 110.816406 217.015625 107.902344 C 219.929688 104.914062 221.386719 100.355469 221.386719 94.234375 Z M 221.386719 65.261719 "/>
<path style=" stroke:none;fill-rule:nonzero;fill:rgb(11.372549%,16.078431%,27.843137%);fill-opacity:1;" d="M 250.183594 55.3125 C 248.363281 55.3125 246.832031 54.691406 245.59375 53.453125 C 244.355469 52.214844 243.734375 50.71875 243.734375 48.96875 C 243.734375 47.21875 244.355469 45.726562 245.59375 44.488281 C 246.832031 43.175781 248.363281 42.519531 250.183594 42.519531 C 251.933594 42.519531 253.429688 43.175781 254.667969 44.488281 C 255.90625 45.726562 256.523438 47.21875 256.523438 48.96875 C 256.523438 50.71875 255.90625 52.214844 254.667969 53.453125 C 253.429688 54.691406 251.933594 55.3125 250.183594 55.3125 Z M 245.375 119.929688 L 245.375 65.261719 L 254.886719 65.261719 L 254.886719 119.929688 Z M 245.375 119.929688 "/>
<path style=" stroke:none;fill-rule:evenodd;fill:rgb(11.372549%,16.078431%,27.843137%);fill-opacity:1;" d="M 6.949219 121.972656 C 16.210938 138.023438 32.804688 147.601562 51.332031 147.601562 C 69.859375 147.601562 86.445312 138.023438 95.714844 121.972656 C 104.976562 105.925781 104.976562 86.761719 95.714844 70.714844 L 56.679688 3.085938 C 54.300781 -1.027344 48.359375 -1.027344 45.984375 3.085938 L 6.949219 70.714844 C -2.316406 86.761719 -2.316406 105.921875 6.949219 121.972656 Z M 40.335938 35.261719 L 48.65625 20.839844 C 49.84375 18.78125 52.816406 18.78125 54.003906 20.839844 L 86.023438 76.3125 C 91.90625 86.503906 93.007812 98.296875 89.335938 109.089844 C 88.953125 107.328125 88.417969 105.527344 87.695312 103.707031 C 83.273438 92.542969 73.273438 83.929688 57.96875 78.101562 C 47.445312 74.109375 40.730469 68.238281 38 60.648438 C 34.484375 50.867188 38.15625 40.199219 40.335938 35.261719 Z M 26.140625 59.847656 L 16.636719 76.3125 C 9.398438 88.855469 9.398438 103.832031 16.636719 116.378906 C 23.878906 128.925781 36.847656 136.410156 51.332031 136.410156 C 60.949219 136.410156 69.902344 133.105469 76.953125 127.210938 C 77.871094 124.894531 80.71875 116.417969 77.203125 107.683594 C 73.953125 99.617188 66.136719 93.179688 53.964844 88.542969 C 40.203125 83.320312 31.265625 75.171875 27.398438 64.324219 C 26.867188 62.832031 26.453125 61.335938 26.140625 59.847656 Z M 26.140625 59.847656 "/>
</g>
</svg>
